<svg width="94" height="61" viewBox="0 0 94 61" xmlns="http://www.w3.org/2000/svg"><path d="M.28 4.11C-.358 1.723 1.24 0 4.2 0h84.6c2.96 0 4.558 1.722 3.92 4.11-.427 1.603-1.883 3.294-3.48 4.141L51.693 28.43c-3.274 1.523-7.052 1.523-10.402-.038L3.764 8.253C2.16 7.402.707 5.713.28 4.111zm2.898-.773c.201.753 1.094 1.79 1.995 2.268l.006.003L42.633 25.71c2.47 1.15 5.323 1.15 7.717.039L87.827 5.605c.9-.478 1.794-1.515 1.995-2.268.042-.156.044-.18.066-.16C89.806 3.102 89.468 3 88.8 3H4.2c-.65 0-.988.097-1.082.172.017-.01.022.024.06.165zM88.866 15.6c1.26-.655 2.309-.802 3.195-.153.724.53.906 1.169.962 2.146l.012.264.005.143v36.71c0 2.93-3.512 6.29-6.5 6.29H6.5C3.48 61 0 57.658 0 54.71V17.712c.013-1.005.162-1.648.873-2.211.878-.694 1.94-.561 3.262.1L42.65 35.748a7.05 7.05 0 0 0 3.735.824h.172a7.065 7.065 0 0 0 3.75-.832l38.56-20.14zM51.709 38.392a10.05 10.05 0 0 1-5.239 1.18 10.02 10.02 0 0 1-5.225-1.173L3 18.392V54.71C3 55.973 5.11 58 6.5 58h80.04c1.36 0 3.5-2.047 3.5-3.29l.001-36.34L51.71 38.393z"/></svg>