<svg width="93" height="84" viewBox="0 0 93 84" xmlns="http://www.w3.org/2000/svg"><path d="M11.21 48.62V78c0 3.792 1.25 5.5 5.62 5.5h20.98V52.57h17.38V83.5h21.94c3.672 0 4.65-1.759 4.65-5.5V48.62h6.86c4.3 0 5.767-3.318 2.79-6.41l-.019-.02-40.12-40.15A6.64 6.64 0 0 0 46.5.005a6.66 6.66 0 0 0-4.814 2.059L1.589 42.19c-2.995 3.11-1.54 6.43 2.761 6.43h6.86zm77.43-3h-9.86V78c0 2.305-.109 2.5-1.65 2.5H58.19V49.57H34.81V80.5H16.83c-2.475 0-2.62-.199-2.62-2.5V45.62H4.35c-1.676 0-1.746-.16-.62-1.33L43.832 4.16A3.681 3.681 0 0 1 46.5 3.005c1 0 1.955.41 2.646 1.131L89.279 44.3c1.113 1.158 1.037 1.32-.639 1.32z"/></svg>