<svg height="512" viewBox="0 0 512 512" width="512" xmlns="http://www.w3.org/2000/svg"><path d="M156.29 121H77.5c-5.36 0-10.32-2.86-13-7.51l-9.39-16.3c-16.62 20.94-29.7 44.12-38.94 68.81H29.5c5.36 0 10.32 2.86 13 7.51L81.37 241h79.26l34.32-59.59zm-.46 300H86.17l-9.96 17.3c29.4 29.02 64.62 50.07 103.02 62.07L190.39 481zm270 0h-69.66l-34.56 60 11.16 19.37c38.4-12 73.62-33.05 103.02-62.07zm31.06-323.81l-9.39 16.3a15.005 15.005 0 0 1-13 7.51h-78.79l-38.66 60.41L351.37 241h79.26l38.87-67.49c2.68-4.65 7.64-7.51 13-7.51h13.33c-9.24-24.68-22.32-47.87-38.94-68.81zM332.77 11.63L321.61 31l34.56 60h69.66l9.96-17.3c-29.4-29.02-64.62-50.07-103.02-62.07zM291.3 38.49a15.009 15.009 0 0 1 0-14.98l11.14-19.34C287.28 1.41 271.75 0 256 0s-31.28 1.41-46.44 4.18l11.14 19.33a15.009 15.009 0 0 1 0 14.98l-38.65 67.1L220.71 166h70.58l38.66-60.41zM482.5 346c-5.36 0-10.32-2.86-13-7.51L430.63 271h-79.26l-34.32 59.59L355.71 391h78.79c5.36 0 10.32 2.86 13 7.51l9.39 16.3c16.62-20.94 29.7-44.12 38.94-68.81zm22.48-150h-13.81l-34.56 60 34.56 60h13.81c4.64-19.42 7.02-39.52 7.02-60s-2.38-40.58-7.02-60zM291.3 473.51l38.65-67.1L291.29 346h-70.58l-38.66 60.41 38.65 67.1a15.009 15.009 0 0 1 0 14.98l-11.14 19.34c15.16 2.76 30.69 4.17 46.44 4.17s31.28-1.41 46.44-4.18l-11.14-19.33a15.009 15.009 0 0 1 0-14.98zM160.63 271H81.37L42.5 338.49a15.005 15.005 0 0 1-13 7.51H16.17c9.24 24.68 22.32 47.87 38.94 68.81l9.39-16.3c2.68-4.65 7.64-7.51 13-7.51h78.79l38.66-60.41zm-139.8-75H7.02C2.38 215.42 0 235.52 0 256s2.38 40.58 7.02 60h13.81l34.56-60zm270 0h-69.66l-34.56 60 34.56 60h69.66l34.56-60zM179.23 11.63c-38.4 12-73.62 33.06-103.03 62.07L86.17 91h69.66l34.56-60z"/></svg>