<svg width="84" height="84" viewBox="0 0 84 84" xmlns="http://www.w3.org/2000/svg"><path d="M27.99 58.44c-.315-.316-1.36-1.376-1.467-1.484a45.736 45.736 0 0 0-1.462-1.422c-5.298-4.889-10.216-4.68-18.891 2.297-4.857 3.906-6.763 7.73-6.013 11.59.562 2.898 2.299 5.228 5.73 8.54A261.713 261.713 0 0 1 8.418 80.4c7.584 7.583 31.16-1.307 50.913-21.06C79.086 39.586 87.983 15.997 80.389 8.429c-.515-.515-2.48-2.578-2.45-2.546C74.646 2.47 72.302.729 69.4.17c-3.862-.744-7.688 1.16-11.588 6.01-6.975 8.674-7.181 13.592-2.288 18.892.404.437.838.882 1.423 1.461.098.098 1.166 1.15 1.483 1.468 2.141 2.129-2.432 9.16-11.85 18.578-9.396 9.409-16.452 13.997-18.588 11.86zm32.558-32.564c-.325-.324-1.398-1.381-1.49-1.472a43.192 43.192 0 0 1-1.33-1.367c-3.814-4.131-3.678-7.393 2.42-14.977 3.266-4.06 6.058-5.45 8.684-4.944 2.102.404 4.066 1.863 6.95 4.85-.054-.056 1.94 2.038 2.487 2.585 2.443 2.434 2.377 8.856-.68 16.962-3.55 9.414-10.565 19.892-20.38 29.706-9.814 9.815-20.289 16.827-29.702 20.376-8.104 3.056-14.528 3.123-16.966.684a260.553 260.553 0 0 0-2.57-2.476C4.964 72.9 3.508 70.948 3.1 68.85c-.508-2.621.882-5.41 4.949-8.681 7.585-6.1 10.849-6.24 14.977-2.43.4.369.816.775 1.367 1.33.1.101 1.15 1.167 1.475 1.492 4.15 4.15 11.83-.844 22.832-11.86 11.034-11.035 16.01-18.685 11.847-22.825z"/></svg>