<svg width="18" height="18" viewBox="0 0 18 18" xmlns="http://www.w3.org/2000/svg"><g transform="translate(-3 -3)" fill="#FFF"><path d="M16.402 16.4c-3.062 3.063-8.029 3.06-11.094-.006C2.242 13.328 2.238 8.36 5.3 5.299c3.062-3.062 8.029-3.058 11.094.007 3.066 3.066 3.07 8.033.007 11.095zm-1.06-1.06a6.345 6.345 0 0 0-.007-8.973A6.345 6.345 0 0 0 6.36 6.36a6.345 6.345 0 0 0 .008 8.973 6.345 6.345 0 0 0 8.973.007z"/><rect transform="rotate(-45 18.03 18.054)" x="16.66" y="14.594" width="2.74" height="6.92" rx="1.22"/></g></svg>