<svg xmlns="http://www.w3.org/2000/svg" width="2000" fill="#FFF" height="2000" viewBox="0 0 2000 2000"><path d="M401.331 1369.706c-12.178-.138-46.684-.138-103.511 0-4.76 0-8.12.072-10.078.21-3.92.42-6.65 1.332-8.188 2.729-1.542 1.542-2.451 4.13-2.729 7.769-.42 9.658-.42 19.248 0 28.765.279 3.92 1.26 6.719 2.939 8.398 1.68 1.542 4.688 2.451 9.028 2.729 1.958.141 5.318.21 10.078.21 4.337.141 7.769.282 10.288.42 5.177.561 8.818 1.89 10.918 3.989s3.359 5.741 3.779 10.918c.138 1.962.21 6.509.21 13.647v198.203c0 6.581.138 11.128.42 13.647.558 6.44 3.638 9.8 9.238 10.078 10.216.42 20.924.348 32.124-.21 5.177-.278 8.047-3.218 8.608-8.818.279-3.779.42-9.448.42-17.007v-95.742l.21-95.742v-15.327c.558-6.437 2.027-10.918 4.409-13.438 2.52-2.52 6.998-3.989 13.438-4.409 1.958-.138 5.039-.21 9.238-.21 4.058 0 7.208-.138 9.448-.42 3.638-.279 6.227-1.188 7.769-2.729 1.397-1.539 2.237-4.199 2.52-7.979.279-3.779.42-10.006.42-18.687-.141-10.078-1.191-16.095-3.149-18.057-1.962-1.956-7.91-2.937-17.847-2.937zm143.626 71.867c-7.203-6.862-14.743-11.14-22.618-12.828-10.578-2.25-22.786-2.363-36.627-.337-4.164.675-8.271 2.476-12.321 5.401-19.806 14.405-29.482 31.846-29.031 52.325v129.121c0 10.916 2.025 20.145 6.076 27.682 11.027 20.705 28.243 31.395 51.649 32.069 22.955.675 41.239-9.958 54.856-31.9 1.798-3.149 2.98-6.076 3.544-8.777 2.363-14.402 3.544-23.348 3.544-26.837v-114.438c0-9.114-1.577-18.904-4.726-29.369-2.362-7.876-7.146-15.247-14.346-22.112zm-24.305 166.761c0 5.628-.733 10.072-2.194 13.334-3.039 6.865-8.384 10.186-16.035 9.959-7.653-.111-12.828-3.714-15.528-10.803-1.239-2.925-1.856-7.875-1.856-14.854v-112.58c0-5.288.168-8.888.506-10.803 1.237-8.888 6.414-13.672 15.528-14.347 9.225-.786 15.191 2.982 17.892 11.309 1.013 3.489 1.574 7.484 1.688 11.983l-.001 116.802zm181.621-129.122c-1.801-20.93-11.646-35.614-29.538-44.053-9.79-4.5-19.917-6.751-30.382-6.751-1.688 0-8.271-.056-19.748-.169-7.991 0-14.574.058-19.748.169-8.777 0-13.954.789-15.528 2.363-1.577 1.577-2.363 6.583-2.363 15.022v208.79c0 4.164.168 7.371.506 9.62.562 4.278 2.869 6.583 6.92 6.921 5.739.451 12.095.617 19.073.506 6.414-.11 10.351-.954 11.815-2.531 1.575-1.461 2.418-5.344 2.532-11.646v-54.688c0-5.4.111-9.001.338-10.802.675-5.739 3.824-9.001 9.452-9.79 2.025-.337 7.031-.562 15.022-.675 6.301-.225 11.195-1.013 14.685-2.363 11.027-4.051 19.859-10.634 26.5-19.748 6.638-9.114 10.183-19.466 10.634-31.057v-23.124h-.169l-.001-25.994zm-38.82 43.041c-1.013 6.751-4.22 12.097-9.621 16.034-5.515 3.827-11.591 5.178-18.229 4.052-5.965-1.013-9.114-4.275-9.452-9.79v-27.344h-.169v-23.124c.448-8.887 5.174-12.996 14.178-12.321 12.828 1.013 20.423 7.653 22.786 19.917 1.912 9.904 2.081 20.761.507 32.576zm187.768-152.547c-12.178-.138-46.684-.138-103.511 0-4.76 0-8.12.072-10.078.21-3.92.42-6.65 1.332-8.188 2.729-1.542 1.542-2.451 4.13-2.729 7.769-.42 9.658-.42 19.248 0 28.765.279 3.92 1.26 6.719 2.939 8.398 1.68 1.542 4.688 2.451 9.028 2.729 1.958.141 5.318.21 10.078.21 4.337.141 7.769.282 10.288.42 5.177.561 8.818 1.89 10.918 3.989s3.359 5.741 3.779 10.918c.138 1.962.21 6.509.21 13.647v198.203c0 6.581.138 11.128.42 13.647.558 6.44 3.638 9.8 9.238 10.078 10.216.42 20.924.348 32.124-.21 5.177-.278 8.047-3.218 8.608-8.818.279-3.779.42-9.448.42-17.007v-95.742l.21-95.742v-15.327c.558-6.437 2.027-10.918 4.409-13.438 2.52-2.52 6.998-3.989 13.438-4.409 1.958-.138 5.039-.21 9.238-.21 4.058 0 7.208-.138 9.448-.42 3.638-.279 6.227-1.188 7.769-2.729 1.397-1.539 2.237-4.199 2.52-7.979.279-3.779.42-10.006.42-18.687-.141-10.078-1.191-16.095-3.149-18.057-1.963-1.956-7.91-2.937-17.847-2.937zm76.28 60.052c-3.151-.224-8.102-.337-14.853-.337-8.667 0-13.785.789-15.36 2.363-1.688 1.577-2.532 6.583-2.532 15.022v205.414c0 4.839.169 8.497.506 10.971.562 4.84 3.149 7.485 7.764 7.934 3.486.337 8.495.506 15.022.506 8.439 0 13.503-.786 15.191-2.362 1.575-1.688 2.363-6.808 2.363-15.36v-204.064c0-5.738-.113-9.79-.337-12.152-.451-4.839-3.038-7.484-7.764-7.935zm145.839 49.454c-1.802-20.93-11.646-35.614-29.538-44.053-9.79-4.5-19.917-6.751-30.382-6.751-1.688 0-8.271-.056-19.748-.169-7.991 0-14.574.058-19.748.169-8.777 0-13.954.789-15.528 2.363-1.577 1.577-2.363 6.583-2.363 15.022v208.79c0 4.164.168 7.371.506 9.62.562 4.278 2.869 6.583 6.92 6.921 5.739.451 12.095.617 19.073.506 6.414-.11 10.351-.954 11.815-2.531 1.575-1.461 2.418-5.344 2.532-11.646v-54.688c0-5.4.111-9.001.338-10.802.675-5.739 3.824-9.001 9.452-9.79 2.025-.337 7.031-.562 15.022-.675 6.301-.225 11.195-1.013 14.685-2.363 11.026-4.051 19.859-10.634 26.5-19.748 6.638-9.114 10.183-19.466 10.633-31.057v-23.124h-.168l-.001-25.994zm-38.822 43.041c-1.013 6.751-4.22 12.097-9.621 16.034-5.515 3.827-11.591 5.178-18.229 4.052-5.965-1.013-9.114-4.275-9.452-9.79v-27.344h-.169v-23.124c.448-8.887 5.174-12.996 14.178-12.321 12.828 1.013 20.423 7.653 22.786 19.917 1.913 9.904 2.082 20.761.507 32.576zm187.768-152.547c-12.178-.138-46.684-.138-103.511 0-4.76 0-8.119.072-10.078.21-3.92.42-6.649 1.332-8.188 2.729-1.542 1.542-2.45 4.13-2.729 7.769-.42 9.658-.42 19.248 0 28.765.279 3.92 1.26 6.719 2.939 8.398 1.68 1.542 4.688 2.451 9.028 2.729 1.959.141 5.318.21 10.078.21 4.337.141 7.769.282 10.288.42 5.177.561 8.818 1.89 10.918 3.989s3.359 5.741 3.779 10.918c.138 1.962.21 6.509.21 13.647v198.203c0 6.581.138 11.128.42 13.647.558 6.44 3.639 9.8 9.238 10.078 10.216.42 20.924.348 32.124-.21 5.177-.278 8.048-3.218 8.608-8.818.279-3.779.42-9.448.42-17.007v-95.742l.21-95.742v-15.327c.558-6.437 2.027-10.918 4.409-13.438 2.52-2.52 6.998-3.989 13.438-4.409 1.959-.138 5.039-.21 9.238-.21 4.059 0 7.208-.138 9.448-.42 3.639-.279 6.227-1.188 7.769-2.729 1.397-1.539 2.237-4.199 2.52-7.979.279-3.779.42-10.006.42-18.687-.141-10.078-1.19-16.095-3.149-18.057-1.962-1.956-7.909-2.937-17.847-2.937zm143.796 261.584c-2.14-.225-5.797-.393-10.972-.506-23.52-.111-34.828-.169-33.926-.169-5.628-.111-9.511-1.237-11.646-3.376-2.139-2.025-3.32-5.794-3.545-11.309-.45-10.689-.45-20.196 0-28.525.448-7.537 2.025-12.321 4.727-14.347 2.025-1.461 6.301-2.194 12.828-2.194 10.127 0 17.833-.11 23.123-.338 4.95-.337 7.538-2.924 7.765-7.764.448-7.313.562-14.571.337-21.773-.227-4.162-1.013-6.976-2.362-8.439-1.464-1.351-4.22-2.137-8.271-2.363-2.59-.11-6.696-.169-12.321-.169-5.291 0-9.342-.055-12.153-.168-4.839-.338-8.271-1.462-10.296-3.376-2.025-2.025-3.096-5.401-3.207-10.127-.451-11.027-.506-22.391-.169-34.096.225-5.4 1.406-9.17 3.545-11.309 2.136-2.025 6.076-3.148 11.815-3.376-1.127.114 10.183.114 33.926 0 5.175-.11 8.777-.279 10.803-.506 4.388-.448 6.751-2.756 7.089-6.92.448-3.938.617-8.888.506-14.854 0-7.537-.844-12.095-2.531-13.671-1.577-1.575-6.245-2.363-14.01-2.363-22.73-.111-47.655-.111-74.772 0-8.439 0-13.447.844-15.021 2.532-1.577 1.577-2.363 6.696-2.363 15.36v201.363c0 6.414.056 10.523.169 12.322.337 3.826 1.292 6.472 2.869 7.933 1.461 1.464 4.22 2.363 8.271 2.7 1.123.114 2.925.169 5.401.169h74.941c3.6 0 6.751-.224 9.452-.675 4.274-.562 6.638-2.925 7.089-7.089.899-8.326.899-16.935 0-25.824-.34-4.053-2.703-6.302-7.091-6.753zm142.969-83.381c-8.215-48.61-14.009-82.874-17.385-102.791-.451-2.812-.902-5.064-1.351-6.751-1.013-3.824-2.194-6.301-3.544-7.427-1.351-1.124-3.883-1.799-7.596-2.025h-16.372v-.169h-15.022c-5.628 0-9.452.789-11.478 2.363-2.139 1.688-3.657 5.459-4.557 11.309-.564 3.151-7.54 43.884-20.93 122.202-2.477 14.292-7.484 43.885-15.022 88.782-.788 4.952-1.239 8.102-1.35 9.452-.228 5.29 2.08 8.046 6.92 8.271 7.427.337 16.483.337 27.175 0 4.726-.111 7.595-2.588 8.607-7.427 3.039-16.204 4.669-25.598 4.896-28.188 1.013-8.888 3.038-14.347 6.076-16.372 2.25-1.461 7.933-2.137 17.048-2.025.224 0 1.123.058 2.7.169 5.963.227 9.563 3.096 10.803 8.607 1.35 6.304 2.136 10.296 2.362 11.984.448 2.7 1.013 6.751 1.688 12.152.785 5.401 1.35 9.452 1.688 12.152.562 3.266 1.52 5.515 2.869 6.752 1.351 1.351 3.655 2.139 6.921 2.363 1.461.113 6.469.227 15.021.337 8.777.111 14.064-.617 15.866-2.194 2.587-2.362 2.98-8.607 1.182-18.735-4.163-24.753-9.902-59.017-17.215-102.791zm-37.302 26.331c-.451 2.477-3.713 3.713-9.789 3.713-6.752.113-10.128-1.182-10.128-3.882 0-1.123.056-2.643.169-4.558 1.237-14.516 3.149-25.091 5.739-31.731.562-1.237 1.574-2.025 3.038-2.363 1.688-.448 3.148.338 4.389 2.363 1.013 1.801 1.629 3.489 1.856 5.063.11.564.786 4.502 2.025 11.815 1.123 6.076 1.912 10.633 2.363 13.672.449 3.265.563 5.233.338 5.908zm238.84-144.482c-10.578-.224-23.688-.224-39.327 0-5.178.113-8.329 2.87-9.452 8.271-.338 2.025-1.24 6.92-2.701 14.685-1.239 5.965-2.194 10.86-2.869 14.685-2.025 10.465-4.84 25.376-8.439 44.729a18633.752 18633.752 0 0 0-8.271 44.729c-.227 1.239-.451 2.139-.675 2.7-1.24 2.7-2.869 3.995-4.896 3.882-1.914-.11-3.206-1.182-3.882-3.207-1.464-4.161-2.363-7.199-2.7-9.114a13579.155 13579.155 0 0 1-8.946-45.234c-4.388-22.391-7.371-37.526-8.945-45.404-1.802-9.114-3.489-17.103-5.063-23.968-.902-4.388-3.376-6.583-7.427-6.583-16.317-.224-30.382-.224-42.196 0-4.165 0-6.527 2.252-7.09 6.751-.337 2.927-.506 6.978-.506 12.152v202.714c0 5.628.11 9.679.338 12.152.448 4.389 2.7 6.81 6.751 7.258 8.777.899 17.385.844 25.824-.169 4.275-.448 6.693-2.756 7.258-6.92.338-3.263.507-7.313.507-12.153.11-7.089.169-16.878.169-29.368v-29.2c0-5.963.506-9.959 1.519-11.984.338-.786 1.013-1.35 2.025-1.688 1.574-.562 2.701-.056 3.376 1.519 1.688 3.714 2.812 6.641 3.376 8.777 2.136 8.553 5.063 20.874 8.776 36.964.562 2.363 1.968 8.329 4.22 17.892a1512.92 1512.92 0 0 0 4.22 17.892c.786 3.265 1.856 5.459 3.207 6.583 1.461 1.126 3.824 1.801 7.089 2.025 4.95.337 9.959.396 15.022.169 4.051-.225 6.807-1.013 8.271-2.363 1.574-1.237 2.812-3.882 3.713-7.934 1.461-6.187 3.432-15.021 5.908-26.499.785-3.6 2.025-9.563 3.713-17.892a2592.37 2592.37 0 0 1 3.713-18.06c1.013-5.064 2.25-8.439 3.714-10.128.562-.786 1.292-1.123 2.194-1.013 1.123 0 1.856.396 2.194 1.182 2.249 5.177 3.375 11.815 3.375 19.917v22.448c0 9.229.056 16.71.169 22.449 0 4.277.169 7.877.507 10.802.337 3.94 2.249 6.135 5.738 6.583 9.339 1.124 18.398 1.124 27.175 0 4.051-.562 6.301-3.038 6.752-7.427.337-3.148.506-7.258.506-12.321v-202.544c0-5.174-.113-8.777-.338-10.802-.452-5.176-2.984-7.822-7.596-7.935zm-1007.083-58.294h-256c-5.523 0-10 4.477-10 10v25.333c0 5.523 4.477 10 10 10h256c5.523 0 10-4.477 10-10v-25.333c0-5.523-4.477-10-10-10zm370 0h-176c-5.523 0-10 4.477-10 10v25.333c0 5.523 4.477 10 10 10h176c5.523 0 10-4.477 10-10v-25.333c0-5.523-4.477-10-10-10zm640 0h-443c-5.523 0-10 4.477-10 10v25.333c0 5.523 4.477 10 10 10h443c5.523 0 10-4.477 10-10v-25.333c0-5.523-4.477-10-10-10zM877.241 625.536l-80.908-160.702 43.322 174.62-96.842-151.636L803.65 657.16 691.927 516.119l77.701 162.283-125.429-129.009 93.651 153.649-137.755-115.757 108.653 143.427L560.031 629.43l122.508 131.78-158.15-85.807 135.197 118.743-166.017-69.384 146.508 104.432-172.2-52.172 156.364 89.023-176.608-34.362 164.625 72.592-179.198-16.168 171.163 55.473-179.916 2.088 175.901 37.879-178.804 20.143 178.804 20.145-175.901 37.889 179.907 2.082-171.154 55.475 179.192-16.184-164.619 72.605 176.595-34.363-156.356 89.012 172.185-52.183-86.105 61.379c-71.519 24.84-133.864 55.473-183.982 90.521 204.907-85.273 416.827-128.526 630.071-128.526 213.25 0 425.136 43.264 630 128.53-53.736-37.568-121.516-70.067-199.604-95.801l-78.673-56.093 172.199 52.172-156.368-89.004 176.615 34.345-164.63-72.594 179.198 16.184-171.169-55.475 179.92-2.109-175.899-37.869 178.797-20.138-178.797-20.143 175.895-37.879-179.907-2.088 171.159-55.469-179.203 16.176 164.636-72.599-176.606 34.358 156.374-88.992-172.203 52.172 146.508-104.449-166.02 69.373 135.208-118.718-158.161 85.789 122.519-131.769-148.71 101.294 108.642-143.433-137.79 115.71 93.688-153.612-125.432 129.005 77.699-162.29-111.751 141.014 60.862-169.319-96.845 151.64 43.324-174.628-80.908 160.702 25.312-178.138-64.116 168.118 7.02-179.782-46.729 173.751-11.14-179.578-29.035 177.567-29.061-177.567-11.147 179.582-46.725-173.755 7.053 179.782-64.09-168.118 25.291 178.139zm118.678 7.086c204.937 0 371.075 166.147 371.075 371.067 0 44.397-7.829 86.957-22.145 126.41-11.743-12.302-23.505-24.585-35.212-36.921-16.293-17.168-32.724-34.223-47.506-52.745-9.051-11.34-17.643-23.013-23.497-36.436-2.808-6.437-4.278-13.147-4.731-20.16-.512-7.929-3.214-15.304-6.678-22.366-5.84-11.906-13.694-22.45-22.439-32.355-16.679-18.89-35.227-35.928-53.511-53.184-16.882-15.933-34.75-30.816-51.962-46.406-11.51-10.425-22.613-21.3-33.948-31.92-2.693-2.523-5.441-5.035-8.424-7.192-5.627-4.071-9.948-3.957-15.297.49-7.771 6.461-12.632 14.864-14.9 24.622-4.013 17.267.155 32.55 12.256 45.449 6.373 6.793 13.168 13.197 19.902 19.64 7.917 7.574 15.79 15.183 22.468 23.906 3.422 4.471 6.273 9.274 7.625 15.34l-13.535-1.666c-.231.3-.346.398-.39.521-.048.133-.091.327-.03.432 15.522 26.712 31.054 53.418 46.739 80.388l-11.691 19.91-139.523 73.617c1.085.758 1.638 1.232 2.265 1.568 21.11 11.318 42.174 22.725 63.364 33.891 13.088 6.896 26.569 12.967 40.754 17.309 11.494 3.518 23.208 5.819 35.294 5.634 17.741-.272 33.992-5.567 49.065-14.751 9.646-5.877 18.313-13.01 26.594-20.645.698-.643 1.449-1.227 2.183-1.831-1.442 2.281-2.758 4.657-4.376 6.805-8.244 10.945-17.521 20.9-29.385 27.972-6.072 3.619-12.597 6.481-18.944 9.629-1.435.712-2.985 1.192-4.67 1.852.831 1.675 2.246 1.448 3.453 1.633 11.233 1.724 22.45 3.439 33.382 6.749a82.576 82.576 0 0 1 26.539 13.613c-62.58-8.009-128.295-12.292-196.092-12.292-113.02 0-220.292 11.86-316.839 33.119-36.866-57.642-58.31-126.117-58.31-199.626 0-204.922 166.14-371.07 371.077-371.07zm-713.64 341.236c7.554 9.261 16.831 16.043 28.964 19.634 5.052-35.958 3.482-71.23-3.709-106.371-7.202-35.192-19.958-68.058-40.012-99.31l-4.997 17.027-5.804 34.745c-.372 4.171-.854 8.336-1.097 12.515-1.373 23.602-.583 47.097 4.333 70.294 3.948 18.635 10.051 36.422 22.322 51.466zM572.78 464.646c4.203-2.498 8.401-5.03 12.418-7.811 38.51-26.658 68.151-61.181 89.8-102.537 4.849-9.263 7.981-19.424 11.904-29.172l-.965-.161c-1.553.813-3.057 1.743-4.667 2.423-39.752 16.772-73.935 41.1-100.921 74.979-10.68 13.408-18.444 28.34-20.23 45.759-.759 7.401-.385 14.732 2.303 22.154 3.795-2.053 7.147-3.726 10.358-5.634z"/><path d="M337.111 1289.159c15.043 9.582 31.233 14.211 49.448 10.089-8.503-49.773-96.731-152.077-137.952-160.415-.119.29-.366.601-.325.869.169 1.12.396 2.234.651 3.338 7.841 33.934 20.704 65.751 40.057 94.818 13.173 19.785 27.743 38.321 48.121 51.301zm-38.322-151.511c9.143 6.563 19.028 11.121 30.666 10.477 4.604-46.843-54.953-165.748-92.44-184.546-.182.819-.506 1.602-.507 2.385-.006 5.678-.098 11.361.115 17.032 1.32 35.181 7.299 69.402 21.675 101.786 9.247 20.833 21.661 39.35 40.491 52.866zm15.545-314.429c3.996 5.156 9.252 9.335 14.638 14.658 13.661-33.852 20.699-67.486 21.736-102.442 1.034-34.898-2.863-68.958-15.733-102.546-1.01 1.413-1.327 1.778-1.558 2.191-23.626 42.117-36.311 87.156-35.444 135.614.337 18.955 4.435 37.141 16.361 52.525zm99.981 459.788c9.911-10.177 14.505-23.006 17.498-36.44 3.988-17.905 4.268-36.127 3.786-54.388-.778-29.487-6.562-58.34-10.911-87.375-.125-.834-.623-1.612-.993-2.532-52.81 44.148-55.435 134.134-14.023 184.862 1.558-1.376 3.205-2.65 4.643-4.127zm-32.747-589.466c39.755-57.433 56.426-120.122 49.84-188.928l-1.36-.541c-1.224 1.275-2.482 2.519-3.666 3.83-26.344 29.134-44.987 62.653-56.465 100.132-4.891 15.97-7.443 32.353-5.344 49.117 1.694 13.535 6.54 25.707 16.995 36.39zm14.602 231.345c9.307-23.159 17.337-46.835 25.677-70.374 2.356-6.649 3.861-13.599 5.855-20.767-64.803 16.705-106.965 98.84-92.698 159.432 10.427-3.015 19.19-8.798 26.983-16.11 15.586-14.625 26.338-32.661 34.183-52.181zm-40.574 216.463c11.101-6.057 18.682-15.492 24.847-26.201 11.78-20.464 17.786-42.976 21.399-65.963 3.457-21.995 5.156-44.269 7.475-66.436.457-4.37.221-8.813.311-13.602-52.996 28.25-85.774 103.766-56.104 173.021.875-.341 1.511-.512 2.072-.819zm194.409-741.001c-.313.023-.681-.044-.929.098a29.676 29.676 0 0 0-2.462 1.582c-21.434 15.322-40.766 32.916-57.254 53.508-18.644 23.284-33.022 48.66-36.868 78.834-1.619 12.703.382 24.859 7.597 36.184 40.27-26.335 95.871-132.025 89.916-170.206zM361.624 840.659c14.693-3.716 26.43-12.448 37.251-22.495 22.133-20.549 39.198-45.109 54.912-70.656 7.275-11.828 14.06-23.958 21.559-36.793-2.736.115-4.311.096-5.867.26-18.166 1.914-34.933 7.96-50.53 17.334-20.679 12.429-36.683 29.648-48.606 50.314-9.532 16.523-16.325 34.286-18.385 53.609-1.17 10.972-1.292 11.199 9.666 8.427zm47.721-136.671c13.391.17 25.569-4.25 37.187-10.374 23.899-12.598 44.169-29.982 63.11-48.942 12.152-12.164 23.69-24.943 36.272-38.26-60.458-11.637-129.996 34.94-144.748 96.751 2.765.291 5.469.79 8.179.825zm66.8-118.883c6.356 1.062 11.725 2.342 17.163 2.795 16.436 1.37 31.895-2.937 46.936-8.965 25.891-10.375 49.092-25.493 71.863-41.305 8.263-5.738 16.255-11.865 25.319-18.51-28.384-9.919-55.762-8.779-82.618.317-34.003 11.518-60.643 32.567-78.663 65.668zM744.168 455.23c-50.338-31.853-131.545-17.381-168.587 31.312.471.386.901.846 1.422 1.144 1.546.885 3.09 1.791 4.704 2.54 12.688 5.887 26.123 6.223 39.687 5.05 26.515-2.294 51.572-10.359 76.11-20.075 15.402-6.099 30.482-13.012 46.664-19.971zm-95.942-31.293c2.22.206 3.924.469 5.634.506 18.576.402 36.43-3.479 53.962-9.199 33.172-10.822 63.771-26.973 93.304-45.283 8.354-5.179 16.49-10.709 25.701-16.714-2.203-.478-3.089-.727-3.991-.858-19.434-2.816-38.891-2.613-58.211.604-34.38 5.725-66.363 17.277-93.212 40.429-9.674 8.342-17.579 18.115-23.187 30.515zm1040.531 569.556c12.133-3.591 21.41-10.374 28.964-19.634 12.271-15.044 18.374-32.831 22.323-51.465 4.916-23.197 5.706-46.692 4.333-70.294-.243-4.179-.725-8.344-1.097-12.515l-5.804-34.745-4.997-17.027c-20.054 31.252-32.81 64.118-40.012 99.31-7.192 35.14-8.761 70.411-3.71 106.37zm-273.955-536.658c4.017 2.781 8.215 5.313 12.418 7.811 3.212 1.909 6.563 3.582 10.359 5.634 2.688-7.422 3.062-14.753 2.303-22.154-1.785-17.419-9.55-32.351-20.23-45.759-26.986-33.879-61.169-58.207-100.921-74.979-1.61-.679-3.114-1.609-4.667-2.423l-.965.161c3.922 9.748 7.055 19.909 11.904 29.172 21.648 41.356 51.289 75.879 89.799 102.537zm198.638 842.414c18.215 4.122 34.406-.508 49.448-10.089 20.379-12.98 34.948-31.516 48.121-51.301 19.353-29.066 32.215-60.884 40.057-94.818.255-1.104.482-2.218.651-3.338.041-.268-.206-.579-.325-.869-41.221 8.337-129.448 110.642-137.952 160.415zm150.053-333.285c-.001-.783-.325-1.566-.507-2.385-37.487 18.798-97.044 137.703-92.44 184.546 11.638.644 21.523-3.914 30.666-10.477 18.829-13.517 31.243-32.034 40.491-52.866 14.376-32.384 20.355-66.605 21.675-101.786.212-5.671.121-11.354.115-17.032zm-92.464-128.087c5.386-5.323 10.641-9.503 14.638-14.658 11.925-15.384 16.023-33.57 16.362-52.526.867-48.458-11.818-93.496-35.444-135.614-.232-.413-.548-.778-1.558-2.191-12.87 33.588-16.767 67.648-15.733 102.546 1.036 34.957 8.074 68.591 21.735 102.443zm-94.723 264.394c-.371.92-.868 1.698-.993 2.532-4.349 29.035-10.132 57.887-10.911 87.375-.482 18.261-.202 36.484 3.786 54.388 2.992 13.435 7.587 26.264 17.498 36.44 1.438 1.477 3.085 2.751 4.644 4.127 41.41-50.728 38.785-140.714-14.024-184.862zm59.121-445.119c2.099-16.764-.454-33.147-5.344-49.117-11.478-37.48-30.12-70.998-56.465-100.132-1.185-1.31-2.443-2.555-3.666-3.83l-1.36.541c-6.586 68.805 10.085 131.495 49.84 188.928 10.455-10.684 15.301-22.856 16.995-36.39zm-63.129 176.593c1.994 7.168 3.5 14.118 5.855 20.767 8.34 23.538 16.37 47.215 25.677 70.374 7.845 19.52 18.597 37.556 34.183 52.181 7.793 7.312 16.556 13.095 26.983 16.11 14.267-60.593-27.895-142.727-92.698-159.432zm72.106 307.604c.562.307 1.198.478 2.072.819 29.67-69.254-3.108-144.771-56.104-173.021.091 4.789-.146 9.232.311 13.602 2.319 22.167 4.018 44.441 7.475 66.436 3.613 22.987 9.619 45.498 21.399 65.963 6.164 10.709 13.745 20.144 24.847 26.201zm-104.492-570.795c7.215-11.325 9.217-23.481 7.597-36.184-3.846-30.174-18.224-55.55-36.868-78.834-16.489-20.592-35.821-38.185-57.254-53.508a29.843 29.843 0 0 0-2.462-1.582c-.248-.142-.615-.076-.929-.098-5.956 38.181 49.645 143.871 89.916 170.206zm41.138 157.756c-15.597-9.374-32.364-15.42-50.53-17.334-1.556-.164-3.131-.145-5.867-.26 7.499 12.835 14.284 24.965 21.559 36.793 15.714 25.547 32.779 50.106 54.912 70.656 10.821 10.047 22.558 18.779 37.251 22.495 10.959 2.771 10.836 2.545 9.666-8.426-2.061-19.323-8.853-37.087-18.385-53.609-11.923-20.667-27.927-37.886-48.606-50.315zm-126.963-121.899c12.582 13.317 24.12 26.096 36.272 38.26 18.941 18.96 39.211 36.344 63.11 48.942 11.618 6.124 23.796 10.545 37.187 10.374 2.71-.034 5.413-.534 8.179-.825-14.753-61.81-84.29-108.387-144.748-96.751zm-91.514-87.29c9.064 6.645 17.056 12.772 25.319 18.51 22.771 15.812 45.972 30.93 71.863 41.305 15.042 6.027 30.5 10.335 46.936 8.965 5.438-.453 10.807-1.733 17.163-2.795-18.02-33.101-44.66-54.15-78.663-65.667-26.855-9.097-54.233-10.237-82.618-.318zm55.72-28.896c1.614-.749 3.157-1.655 4.704-2.54.522-.299.951-.759 1.422-1.144-37.042-48.693-118.249-63.165-168.587-31.312 16.182 6.959 31.262 13.872 46.664 19.971 24.539 9.716 49.595 17.781 76.11 20.075 13.564 1.174 26.999.837 39.687-5.05zm-126.114-74.981c17.531 5.719 35.386 9.601 53.962 9.199 1.709-.037 3.414-.3 5.634-.506-5.609-12.399-13.513-22.173-23.187-30.514-26.849-23.151-58.831-34.704-93.212-40.429-19.32-3.217-38.777-3.421-58.211-.604-.903.131-1.788.38-3.991.858 9.211 6.005 17.348 11.534 25.701 16.714 29.533 18.31 60.132 34.46 93.304 45.282zM892.253 866.936c-20.029-39.271-40.096-77.911-60.029-117.104 1.171-.23 2.081-.507 3.006-.575 4.567-.339 9.137-.659 13.709-.918 7.083-.402 14.175-.667 21.253-1.139 10.905-.728 21.802-1.591 32.703-2.378 4.273-.308 8.548-.586 12.825-.842 11.358-.679 22.718-1.344 34.078-1.996.726-.042 1.462.072 2.649.14l125.798 225.803-94.847 40.749c5.302 2.56 10.699 4.391 14.969 8.313 4.403 4.045 6.84 9.159 8.319 14.865 1.43 5.517 1.796 11.12 1.207 16.721-.612 5.825-3.638 10.709-6.907 15.62 1.286-.599 2.6-1.145 3.853-1.806 20.922-11.042 41.835-22.101 62.752-33.151 10.72-5.663 21.478-11.254 32.135-17.032 1.875-1.017 3.538-2.625 4.939-4.266 1.81-2.12 3.257-4.549 5.139-7.243L944.646 708.193c-2.897 0-5.822-.075-8.742.014-7.685.234-15.367.553-23.05.814-18.471.627-36.943 1.234-55.414 1.863-7.239.246-14.477.541-21.716.794-9.31.325-18.62.621-27.93.958-1.167.042-2.328.253-3.807.422l-10.177 15.643 71.667 137.384c8.976.284 17.492.555 26.776.851z"/><path d="M980.845 1017.976c-4.846-1.561-9.827-2.015-12.842-1.851-12.004.151-21.792 1.769-31.373 4.198-18.468 4.682-28.559 27.57-19.297 44.003 4.504 7.99 11.541 12.363 20.341 13.332 18.09 1.991 34.543-2.91 49.314-13.356 15.097-10.676 11.773-28.847 5.335-38.39-2.739-4.06-6.853-6.446-11.478-7.936zm-32.213-25.434c6.537-4.988 10.221-11.36 9.94-19.735-.109-3.24-.049-6.525-.586-9.702-1.38-8.165-6.411-13.356-13.985-16.357-7.025-2.783-14.425-2.843-22.34-3.383-5.344.488-11.227.966-17.096 1.577-6.993.729-12.509 4.329-17.07 9.413-7.058 7.866-9.86 17.28-8.02 27.558 1.919 10.719 8.783 17.419 19.313 20.325 9.541 2.633 19.019 1.659 28.472-.443 7.708-1.714 14.999-4.391 21.372-9.253zm-66.857-59.495c10.526.119 19.909-1.447 28.706-5.799 8.302-4.106 13.107-10.697 14.366-19.935.541-3.973.932-7.844.09-11.864-1.468-7.012-5.328-12.047-11.596-15.335-5.297-2.778-11.008-4.308-16.883-5.054-5.997-.762-12.037-1.219-18.069-1.667-18.267-1.356-30.969 13.261-32.985 27.163-2.596 17.904 8.762 27.365 20.516 30.6 5.449 1.5 10.998 2.18 15.855 1.891zm-58.95-130.294c-5.15 3.809-7.881 8.519-9.306 14.067-1.466 5.712-.546 11.263 2.213 16.285 7.024 12.782 18.18 19.134 33.643 20.481l-26.55-50.833zm118.622 208.931l23.419-3.209-6.135-12.095-19.644 10.501 2.36 4.803zm-32.834-74.488c3.863-.242 6.802-.498 9.747-.592 2.911-.092 5.828-.02 9.594-.02l-3.761-7.333-15.58 7.945zm107.853 324.173l-16.458-33.347-16.458 33.347-36.801 5.348 26.629 25.957-6.286 36.653 32.916-17.305 32.916 17.305-6.287-36.653 26.63-25.957zm-114.644 42.521l18.481-18.014-25.54-3.711-11.422-23.143-11.422 23.143-25.539 3.711 18.48 18.014-4.362 25.437 22.843-12.01 22.844 12.01zm214.853 13.427l22.843 12.01-4.363-25.437 18.481-18.014-25.54-3.711-11.421-23.143-11.422 23.143-25.54 3.711 18.481 18.014-4.363 25.437z"/></svg>